P3
# Image created by Trang Do and Audrey Lin's program
4 4
255
137
137
137
163
163
163
163
163
163
10
10
10
163
163
163
215
215
215
247
247
247
163
163
163
163
163
163
255
255
255
22
22
22
163
163
163
255
255
255
163
163
163
163
163
163
10
10
10
