P3
# Image created by Trang Do and Audrey Lin's program
4 4
255
0
0
0
153
217
234
153
217
234
127
127
127
153
217
234
237
28
36
205
85
207
153
217
234
153
217
234
12
102
36
255
242
0
153
217
234
0
162
232
153
217
234
153
217
234
255
255
255
