P3
# Image created by Trang Do and Audrey Lin's program
4 4
255
10
10
10
163
227
244
163
227
244
137
137
137
163
227
244
247
38
46
215
95
217
163
227
244
163
227
244
22
112
46
255
252
10
163
227
244
10
172
242
163
227
244
163
227
244
255
255
255
