P3
# Image created by Trang Do and Audrey Lin's program
4 4
255
53
56
61
109
104
120
123
123
146
83
91
103
97
105
109
160
127
127
179
151
154
124
137
144
83
130
138
135
156
129
179
183
136
144
162
147
39
101
119
84
143
136
131
163
137
118
133
122
