P3
# Image created by Trang Do and Audrey Lin's program
4 4
255
127
127
127
153
217
234
153
217
234
0
0
0
153
217
234
205
85
207
237
28
36
153
217
234
153
217
234
255
242
0
12
102
36
153
217
234
255
255
255
153
217
234
153
217
234
0
162
232
