P3
# Image created by Trang Do and Audrey Lin's program
4 4
255
0
0
0
153
153
153
153
153
153
127
127
127
153
153
153
237
237
237
205
205
205
153
153
153
153
153
153
12
12
12
255
255
255
153
153
153
0
0
0
153
153
153
153
153
153
255
255
255
