P3
# Image created by Trang Do and Audrey Lin's program
4 4
255
0
0
0
205
205
205
205
205
205
127
127
127
205
205
205
73
73
73
119
119
119
205
205
205
205
205
205
78
78
78
227
227
227
205
205
205
133
133
133
205
205
205
205
205
205
255
255
255
