P3
# Image created by Trang Do and Audrey Lin's program
4 4
255
0
0
0
143
207
224
143
207
224
117
117
117
143
207
224
227
18
26
195
75
197
143
207
224
143
207
224
2
92
26
245
232
0
143
207
224
0
152
222
143
207
224
143
207
224
245
245
245
