P3
# Image created by Trang Do and Audrey Lin's program
4 4
255
39
8
37
233
214
255
255
255
255
154
156
228
177
216
226
255
176
137
255
255
255
255
255
255
177
255
255
215
255
224
255
255
206
255
255
255
0
197
255
152
255
255
247
255
255
255
255
255
