P3
# Image created by Trang Do and Audrey Lin's program
4 4
255
0
0
0
234
234
234
234
234
234
127
127
127
234
234
234
237
237
237
207
207
207
234
234
234
234
234
234
102
102
102
255
255
255
234
234
234
232
232
232
234
234
234
234
234
234
255
255
255
