P3
# Image created by Trang Do and Audrey Lin's program
4 4
255
0
0
0
234
234
234
234
234
234
127
127
127
234
234
234
36
36
36
207
207
207
234
234
234
234
234
234
36
36
36
0
0
0
234
234
234
232
232
232
234
234
234
234
234
234
255
255
255
