P3
# Image created by Trang Do and Audrey Lin's program
4 4
255
0
0
0
53
117
134
53
117
134
27
27
27
53
117
134
137
0
0
105
0
107
53
117
134
53
117
134
0
2
0
155
142
0
53
117
134
0
62
132
53
117
134
53
117
134
155
155
155
