P3
# Image created by Trang Do and Audrey Lin's program
4 4
255
100
100
100
253
255
255
253
255
255
227
227
227
253
255
255
255
128
136
255
185
255
253
255
255
253
255
255
112
202
136
255
255
100
253
255
255
100
255
255
253
255
255
253
255
255
255
255
255
