P3
# Image created by Trang Do and Audrey Lin's program
4 4
255
0
0
0
255
242
188
255
242
188
172
153
119
255
242
188
121
108
84
185
165
128
255
242
188
255
242
188
90
80
62
255
255
199
255
242
188
168
150
117
255
242
188
255
242
188
255
255
239
