P3
# Image created by Trang Do and Audrey Lin's program
4 4
255
0
0
0
217
217
217
217
217
217
127
127
127
217
217
217
28
28
28
85
85
85
217
217
217
217
217
217
102
102
102
242
242
242
217
217
217
162
162
162
217
217
217
217
217
217
255
255
255
