P3
# Image created by Trang Do and Audrey Lin's program
4 4
255
0
0
0
201
201
201
201
201
201
127
127
127
201
201
201
100
100
100
165
165
165
201
201
201
201
201
201
50
50
50
165
165
165
201
201
201
131
131
131
201
201
201
201
201
201
255
255
255
